<svg viewBox="0 0 45 48" fill="none" xmlns="http://www.w3.org/2000/svg">
<path d="M22.8106 19.6364V28.9309H35.087C34.5479 31.92 32.9302 34.451 30.504 36.1528L37.9071 42.1964C42.2205 38.0075 44.7089 31.8547 44.7089 24.5457C44.7089 22.8439 44.5638 21.2074 44.2942 19.6366L22.8106 19.6364Z" fill="#4285F4"/>
<path d="M10.0267 28.5681L8.35699 29.9128L2.44679 34.7564C6.20022 42.589 13.8931 48 22.8101 48C28.9689 48 34.1324 45.8618 37.9066 42.1964L30.5035 36.1528C28.4712 37.5928 25.8791 38.4656 22.8101 38.4656C16.8793 38.4656 11.8403 34.2547 10.036 28.5819L10.0267 28.5681Z" fill="#34A853"/>
<path d="M2.44681 13.2436C0.891607 16.4726 0 20.1163 0 23.9998C0 27.8834 0.891607 31.5271 2.44681 34.756C2.44681 34.7777 10.0368 28.5597 10.0368 28.5597C9.58054 27.1197 9.31088 25.5925 9.31088 23.9996C9.31088 22.4066 9.58054 20.8795 10.0368 19.4395L2.44681 13.2436Z" fill="#FBBC05"/>
<path d="M22.8105 9.55634C26.17 9.55634 29.1561 10.7781 31.5409 13.1345L38.073 6.26189C34.1122 2.37833 28.9696 0 22.8105 0C13.8936 0 6.20022 5.38907 2.44679 13.2436L10.0365 19.44C11.8405 13.7672 16.8797 9.55634 22.8105 9.55634Z" fill="#EA4335"/>
</svg>
